<svg width="918" height="591" viewBox="0 0 918 591" fill="none" xmlns="http://www.w3.org/2000/svg">
<g clip-path="url(#clip0_563_1781)">
<!-- Background removed for transparency -->
<path d="M285.477 313.805L272.112 305.233" stroke="black" stroke-width="6.2755" stroke-linecap="round"/>
<path d="M296.911 295.977L283.546 287.405" stroke="black" stroke-width="6.2755" stroke-linecap="round"/>
<path d="M293.1 301.92L279.735 293.348" stroke="black" stroke-width="6.2755" stroke-linecap="round"/>
<path d="M289.289 307.863L275.924 299.291" stroke="black" stroke-width="6.2755" stroke-linecap="round"/>
<path d="M213.065 411.888L277.032 312.148" stroke="black" stroke-width="6.2755" stroke-linecap="round"/>
<path d="M214.346 409.89L218.158 403.947" stroke="black" stroke-width="10.9821" stroke-linecap="round"/>
<path d="M291.42 289.714L304.972 268.584" stroke="black" stroke-width="6.2755" stroke-linecap="round"/>
<path d="M471.249 120.618L486.584 124.731" stroke="black" stroke-width="6.2755" stroke-linecap="round"/>
<path d="M465.76 141.076L481.098 145.188" stroke="black" stroke-width="6.2755" stroke-linecap="round"/>
<path d="M467.59 134.256L482.927 138.369" stroke="black" stroke-width="6.2755" stroke-linecap="round"/>
<path d="M469.419 127.437L484.754 131.55" stroke="black" stroke-width="6.2755" stroke-linecap="round"/>
<path d="M510.49 5.19073L479.798 119.636" stroke="black" stroke-width="6.2755" stroke-linecap="round"/>
<path d="M509.876 7.4823L508.047 14.3016" stroke="black" stroke-width="10.9821" stroke-linecap="round"/>
<path d="M472.894 145.377L466.391 169.622" stroke="black" stroke-width="6.2755" stroke-linecap="round"/>
<path d="M377.259 210.561C402.022 194.219 420.965 182.766 435.073 174.8C455.196 163.437 479.091 169.081 493.817 187.074C500.604 195.365 506.911 203.382 510.15 208.289C512.992 212.597 516.863 219.65 520.842 227.324C531.639 248.145 527.606 273.28 509.949 288.583C496.29 300.416 478.035 314.913 455.807 329.583C433.034 344.612 412.071 355.937 395.64 363.943C375.185 373.907 351.066 368.437 336.822 350.687C331.908 344.563 327.02 338.074 322.916 331.855C317.524 323.684 311.657 314.19 306.389 305.443C296.624 289.224 298.849 269.256 313.253 257.241C326.764 245.971 347.215 230.389 377.259 210.561Z" fill="#F3EDE7" stroke="black" stroke-width="2.87605"/>
<path d="M408.302 275.08C418.984 291.265 414.522 313.044 398.337 323.726C382.152 334.407 360.373 329.945 349.692 313.76C339.011 297.575 343.472 275.796 359.657 265.115C375.842 254.434 397.621 258.895 408.302 275.08Z" fill="black"/>
<path d="M478.876 222.762C487.734 236.185 484.033 254.248 470.611 263.106C457.188 271.965 439.125 268.265 430.267 254.842C421.408 241.418 425.108 223.356 438.531 214.497C451.954 205.639 470.017 209.339 478.876 222.762Z" fill="black"/>
<path d="M400.948 270.027L432.753 249.037L437.506 256.238L405.7 277.229L400.948 270.027Z" fill="black"/>
<path d="M399.927 591H517.922C528.254 591 537.163 583.952 539.643 574.073C539.291 574.07 538.886 574.068 538.438 574.065C536.537 574.056 533.807 574.044 530.49 574.027C523.854 573.996 514.864 573.955 505.452 573.912C486.623 573.828 466.105 573.744 459.327 573.744C452.549 573.744 432.031 573.828 413.203 573.912C403.79 573.955 394.801 573.996 388.165 574.027C384.847 574.044 382.118 574.056 380.218 574.065C379.742 574.068 379.318 574.07 378.95 574.073C381.061 583.875 389.752 591 399.927 591Z" fill="#353533" stroke="black" stroke-width="2.87605"/>
<path d="M391.64 576.141H521.478C545.132 576.141 564.653 557.64 565.923 534.021L568.178 492.033C567.519 492.021 566.652 492.009 565.597 491.992C562.989 491.951 559.243 491.894 554.69 491.824C545.585 491.685 533.249 491.501 520.333 491.316C494.491 490.947 466.344 490.578 457.05 490.578C447.756 490.578 419.608 490.947 393.768 491.316C380.851 491.501 368.516 491.685 359.41 491.824C354.857 491.894 351.111 491.951 348.504 491.992C347.44 492.009 346.567 492.023 345.904 492.033L347.699 534.038C348.704 557.576 368.08 576.141 391.64 576.141Z" fill="#F3EDE7" stroke="black" stroke-width="2.87605"/>
<path d="M457.05 339.346C518.468 339.346 568.257 389.135 568.257 450.553V497.471C567.586 497.49 566.685 497.517 565.578 497.548C562.97 497.622 559.224 497.73 554.673 497.859C545.565 498.113 533.232 498.456 520.316 498.799C494.47 499.482 466.333 500.165 457.05 500.165C447.767 500.165 419.631 499.482 393.785 498.799C380.869 498.456 368.534 498.113 359.429 497.859C354.875 497.73 351.13 497.622 348.523 497.548C347.416 497.517 346.514 497.49 345.843 497.471V450.553C345.843 389.135 395.632 339.346 457.05 339.346Z" fill="#F3EDE7" stroke="black" stroke-width="2.87605"/>
<line x1="379.067" y1="275.175" x2="379.078" y2="313.386" stroke="white" stroke-width="11.6292" stroke-linecap="round"/>
<line x1="359.968" y1="293.455" x2="398.178" y2="293.445" stroke="white" stroke-width="11.6292" stroke-linecap="round"/>
<line x1="456.825" y1="222.88" x2="454.018" y2="254.202" stroke="white" stroke-width="9.571" stroke-linecap="round"/>
<line x1="439.821" y1="236.456" x2="471.143" y2="239.264" stroke="white" stroke-width="9.571" stroke-linecap="round"/>
</g>
<defs>
<clipPath id="clip0_563_1781">
<rect width="918" height="591" fill="white"/>
</clipPath>
</defs>
</svg>
